<svg version="1.1" xmlns="http://www.w3.org/2000/svg" viewBox="0 0 1838.6247929199808 1389.9606309112885" width="1838.6247929199808" height="1389.9606309112885">
  <!-- svg-source:excalidraw -->
  
  <defs>
    <style class="style-fonts">
      @font-face {
        font-family: "Virgil";
        src: url("https://excalidraw.com/Virgil.woff2");
      }
      @font-face {
        font-family: "Cascadia";
        src: url("https://excalidraw.com/Cascadia.woff2");
      }
    </style>
  </defs>
  <g stroke-linecap="round" transform="translate(10 779.6719937987502) rotate(0 33.63511721586201 17.5)"><path d="M8.75 0 M8.75 0 C18.41 -1.49, 30.71 2.32, 58.52 0 M8.75 0 C22.5 -0.13, 36.9 -0.19, 58.52 0 M58.52 0 C65.74 -0.68, 68.34 3.49, 67.27 8.75 M58.52 0 C63.62 -1.22, 68.59 4.07, 67.27 8.75 M67.27 8.75 C68.76 15.53, 69.15 22.98, 67.27 26.25 M67.27 8.75 C67.33 14.61, 66.94 20.03, 67.27 26.25 M67.27 26.25 C67.04 31.81, 64.2 36.1, 58.52 35 M67.27 26.25 C65.31 32.03, 65.44 35.36, 58.52 35 M58.52 35 C40.03 35.86, 20.37 33.33, 8.75 35 M58.52 35 C45.03 35.26, 29.25 34.52, 8.75 35 M8.75 35 C1.2 33.98, -1.38 33.29, 0 26.25 M8.75 35 C0.96 34.44, 0.79 31.86, 0 26.25 M0 26.25 C0.11 21.37, 0.09 13.44, 0 8.75 M0 26.25 C0.66 21.5, -0.04 16.98, 0 8.75 M0 8.75 C-0.13 3.23, 1.71 -1.21, 8.75 0 M0 8.75 C-0.6 4.05, 4.46 1.32, 8.75 0" stroke="#862e9c" stroke-width="1" fill="none"></path></g><g transform="translate(17.030640287151073 784.6719937987502) rotate(0 26.604476928710938 12.5)"><text x="26.604476928710938" y="0" font-family="Virgil, Segoe UI Emoji" font-size="20px" fill="#862e9c" text-anchor="middle" style="white-space: pre;" direction="ltr" dominant-baseline="text-before-edge">HEAD</text></g><g stroke-linecap="round"><g transform="translate(96.09585973910907 795.7365273943858) rotate(0 202.73719184456877 -1.415418667286076)"><path d="M0.99 1.02 C68.56 0.33, 338.06 -2.71, 405.3 -3.52 M0.05 0.51 C67.46 -0.08, 336.48 -1.75, 404.26 -2.34" stroke="#862e9c" stroke-width="1" fill="none"></path></g><g transform="translate(96.09585973910907 795.7365273943858) rotate(0 202.73719184456877 -1.415418667286076)"><path d="M377.85 7.83 C383.05 3.1, 390.59 0.84, 402.88 -1.13 M376.05 8.68 C382.85 5.73, 388.39 4.29, 404.38 -2.56" stroke="#862e9c" stroke-width="1" fill="none"></path></g><g transform="translate(96.09585973910907 795.7365273943858) rotate(0 202.73719184456877 -1.415418667286076)"><path d="M377.69 -12.69 C383.04 -11.51, 390.63 -7.85, 402.88 -1.13 M375.9 -11.85 C382.68 -10.38, 388.25 -7.41, 404.38 -2.56" stroke="#862e9c" stroke-width="1" fill="none"></path></g></g><mask></mask><g stroke-linecap="round" transform="translate(515.1246936495627 775.6663705028068) rotate(0 33.63511721586201 17.5)"><path d="M8.75 0 M8.75 0 C28.36 0.17, 44.49 -0.28, 58.52 0 M8.75 0 C23.67 -0.43, 38.86 -0.43, 58.52 0 M58.52 0 C64.67 -1.2, 66.06 2.4, 67.27 8.75 M58.52 0 C65.49 1.55, 68.59 4.62, 67.27 8.75 M67.27 8.75 C68.76 14.13, 68.69 18.5, 67.27 26.25 M67.27 8.75 C67.47 13.26, 67.7 18.5, 67.27 26.25 M67.27 26.25 C68.19 33.7, 62.99 34.8, 58.52 35 M67.27 26.25 C69.08 34.18, 65.22 36.25, 58.52 35 M58.52 35 C40.94 35.08, 24.1 34.07, 8.75 35 M58.52 35 C40.23 34.37, 22.18 35.94, 8.75 35 M8.75 35 C3.19 35.8, -1.24 33.89, 0 26.25 M8.75 35 C3.66 34.61, 0.19 32.82, 0 26.25 M0 26.25 C0.5 22.35, 0.81 19.27, 0 8.75 M0 26.25 C-0.68 20.81, -0.04 16.51, 0 8.75 M0 8.75 C-1.55 4.19, 1.64 1.28, 8.75 0 M0 8.75 C-2.25 4.85, 0.97 0.25, 8.75 0" stroke="#862e9c" stroke-width="1" fill="none"></path></g><g transform="translate(534.1329454784618 780.6663705028068) rotate(0 14.62686538696289 12.5)"><text x="14.62686538696289" y="0" font-family="Virgil, Segoe UI Emoji" font-size="20px" fill="#862e9c" text-anchor="middle" style="white-space: pre;" direction="ltr" dominant-baseline="text-before-edge">ref</text></g><g transform="translate(512.6754706098054 830.0400052871366) rotate(0 79.8432846069336 40)"><text x="0" y="0" font-family="Virgil, Segoe UI Emoji" font-size="16px" fill="#862e9c" text-anchor="start" style="white-space: pre;" direction="ltr" dominant-baseline="text-before-edge">- Branches</text><text x="0" y="20" font-family="Virgil, Segoe UI Emoji" font-size="16px" fill="#862e9c" text-anchor="start" style="white-space: pre;" direction="ltr" dominant-baseline="text-before-edge">- Tags</text><text x="0" y="40" font-family="Virgil, Segoe UI Emoji" font-size="16px" fill="#862e9c" text-anchor="start" style="white-space: pre;" direction="ltr" dominant-baseline="text-before-edge">- Remote references</text><text x="0" y="60" font-family="Virgil, Segoe UI Emoji" font-size="16px" fill="#862e9c" text-anchor="start" style="white-space: pre;" direction="ltr" dominant-baseline="text-before-edge">- notes</text></g><g transform="translate(10.243578533843902 830.4594671487332) rotate(0 69.42537689208984 30)"><text x="0" y="0" font-family="Virgil, Segoe UI Emoji" font-size="16px" fill="#c92a2a" text-anchor="start" style="white-space: pre;" direction="ltr" dominant-baseline="text-before-edge">N.</text><text x="0" y="20" font-family="Virgil, Segoe UI Emoji" font-size="16px" fill="#c92a2a" text-anchor="start" style="white-space: pre;" direction="ltr" dominant-baseline="text-before-edge">Can also be </text><text x="0" y="40" font-family="Virgil, Segoe UI Emoji" font-size="16px" fill="#c92a2a" text-anchor="start" style="white-space: pre;" direction="ltr" dominant-baseline="text-before-edge">a detached head.</text></g><g transform="translate(195.79690160955033 831.7783561769079) rotate(0 119.18656921386719 20)"><text x="0" y="0" font-family="Virgil, Segoe UI Emoji" font-size="16px" fill="#862e9c" text-anchor="start" style="white-space: pre;" direction="ltr" dominant-baseline="text-before-edge">git switch -C &lt;branch name&gt;</text><text x="0" y="20" font-family="Virgil, Segoe UI Emoji" font-size="16px" fill="#862e9c" text-anchor="start" style="white-space: pre;" direction="ltr" dominant-baseline="text-before-edge">git checkout -b &lt;branch name&gt;</text></g><g transform="translate(197.74390333177053 895.7611612554094) rotate(0 125 80)"><text x="0" y="0" font-family="Virgil, Segoe UI Emoji" font-size="16px" fill="#c92a2a" text-anchor="start" style="white-space: pre;" direction="ltr" dominant-baseline="text-before-edge">N.</text><text x="0" y="20" font-family="Virgil, Segoe UI Emoji" font-size="16px" fill="#c92a2a" text-anchor="start" style="white-space: pre;" direction="ltr" dominant-baseline="text-before-edge">Can not switch with unstaged</text><text x="0" y="40" font-family="Virgil, Segoe UI Emoji" font-size="16px" fill="#c92a2a" text-anchor="start" style="white-space: pre;" direction="ltr" dominant-baseline="text-before-edge">( index || work tree ) changes</text><text x="0" y="60" font-family="Virgil, Segoe UI Emoji" font-size="16px" fill="#c92a2a" text-anchor="start" style="white-space: pre;" direction="ltr" dominant-baseline="text-before-edge">without a force which will </text><text x="0" y="80" font-family="Virgil, Segoe UI Emoji" font-size="16px" fill="#c92a2a" text-anchor="start" style="white-space: pre;" direction="ltr" dominant-baseline="text-before-edge">discards the changes.</text><text x="0" y="100" font-family="Virgil, Segoe UI Emoji" font-size="16px" fill="#c92a2a" text-anchor="start" style="white-space: pre;" direction="ltr" dominant-baseline="text-before-edge"></text><text x="0" y="120" font-family="Virgil, Segoe UI Emoji" font-size="16px" fill="#c92a2a" text-anchor="start" style="white-space: pre;" direction="ltr" dominant-baseline="text-before-edge">Untracked file are left in place</text><text x="0" y="140" font-family="Virgil, Segoe UI Emoji" font-size="16px" fill="#c92a2a" text-anchor="start" style="white-space: pre;" direction="ltr" dominant-baseline="text-before-edge">and do not stop a switch.</text></g><g stroke-linecap="round" transform="translate(943.8136345531857 764.9111901579208) rotate(0 83.13094382462214 27.321124796294384)"><path d="M13.66 0 M13.66 0 C48.15 2.08, 81 -0.03, 152.6 0 M13.66 0 C65.1 -1.09, 117.8 0.13, 152.6 0 M152.6 0 C161.47 -0.77, 165.07 3.03, 166.26 13.66 M152.6 0 C160.03 1.83, 165.1 5.68, 166.26 13.66 M166.26 13.66 C167.46 17.82, 167.46 23.48, 166.26 40.98 M166.26 13.66 C165.62 20.88, 165.56 29.07, 166.26 40.98 M166.26 40.98 C167.78 48.9, 160.2 52.87, 152.6 54.64 M166.26 40.98 C167.79 49.52, 163.17 54.59, 152.6 54.64 M152.6 54.64 C104.89 55.59, 60.06 53.09, 13.66 54.64 M152.6 54.64 C105.33 54.57, 59.66 54.72, 13.66 54.64 M13.66 54.64 C4.37 56.1, 0.72 50.3, 0 40.98 M13.66 54.64 C2.44 56.25, -1.15 52.09, 0 40.98 M0 40.98 C0.6 33.84, -2.03 21.14, 0 13.66 M0 40.98 C0.28 33.45, 0.07 24.35, 0 13.66 M0 13.66 C-1.35 5.51, 4.46 1.17, 13.66 0 M0 13.66 C0.75 5.82, 6.68 1.71, 13.66 0" stroke="#5c940d" stroke-width="1" fill="none"></path></g><g transform="translate(980.2580129786384 779.7323149542151) rotate(0 46.68656539916992 12.5)"><text x="46.68656539916992" y="0" font-family="Virgil, Segoe UI Emoji" font-size="20px" fill="#5c940d" text-anchor="middle" style="white-space: pre;" direction="ltr" dominant-baseline="text-before-edge">work tree</text></g><g stroke-linecap="round" transform="translate(943.8136345531857 1026.2132298763256) rotate(0 83.13094382462214 27.321124796294498)"><path d="M13.66 0 M13.66 0 C59.44 -0.52, 106.87 -0.52, 152.6 0 M13.66 0 C54.94 0.3, 97.15 -0.91, 152.6 0 M152.6 0 C161.22 -1.62, 167.97 3.44, 166.26 13.66 M152.6 0 C163.54 -1.65, 164.42 4.25, 166.26 13.66 M166.26 13.66 C165.74 22.42, 168.15 26.43, 166.26 40.98 M166.26 13.66 C166.7 21, 166.5 28.01, 166.26 40.98 M166.26 40.98 C167.43 50.35, 160.28 53.23, 152.6 54.64 M166.26 40.98 C167.74 48.5, 163.9 53.12, 152.6 54.64 M152.6 54.64 C104.67 53.28, 58.58 55.54, 13.66 54.64 M152.6 54.64 C97.9 54.72, 43.16 54.09, 13.66 54.64 M13.66 54.64 C2.94 56.43, -0.62 51.56, 0 40.98 M13.66 54.64 C6.09 56.72, 0.95 49.61, 0 40.98 M0 40.98 C1.25 34.89, 1.27 25.9, 0 13.66 M0 40.98 C0.57 31.75, 0.25 23.19, 0 13.66 M0 13.66 C0.68 3.92, 5.64 0.67, 13.66 0 M0 13.66 C0.4 3.18, 4.02 1.69, 13.66 0" stroke="#5c940d" stroke-width="1" fill="none"></path></g><g transform="translate(1003.3102495356443 1041.03435467262) rotate(0 23.634328842163086 12.5)"><text x="23.634328842163086" y="0" font-family="Virgil, Segoe UI Emoji" font-size="20px" fill="#5c940d" text-anchor="middle" style="white-space: pre;" direction="ltr" dominant-baseline="text-before-edge">index</text></g><g stroke-linecap="round"><g transform="translate(1146.5036885974896 1008.6996883402401) rotate(0 0.23351388714763743 -23.584902601929343)"><path d="M0.5 -0.25 C0.41 -8.24, 0.27 -39.15, 0.28 -46.84 M-0.7 -1.43 C-1.03 -9.28, -0.85 -40.98, -0.76 -48.79" stroke="#5c940d" stroke-width="1" fill="none"></path></g><g transform="translate(1146.5036885974896 1008.6996883402401) rotate(0 0.23351388714763743 -23.584902601929343)"><path d="M6.73 -26.88 C4.59 -34.58, 2.46 -41.16, 0.58 -48.32 M7.45 -26.53 C4.66 -33.34, 2.33 -41.95, -0.22 -48.46" stroke="#5c940d" stroke-width="1" fill="none"></path></g><g transform="translate(1146.5036885974896 1008.6996883402401) rotate(0 0.23351388714763743 -23.584902601929343)"><path d="M-9.41 -26.99 C-5.62 -34.72, -1.83 -41.26, 0.58 -48.32 M-8.69 -26.64 C-6 -33.45, -2.85 -42.03, -0.22 -48.46" stroke="#5c940d" stroke-width="1" fill="none"></path></g></g><mask></mask><g transform="translate(1135.762049788691 1024.4413271490387) rotate(0 90.63433074951172 20)"><text x="0" y="0" font-family="Virgil, Segoe UI Emoji" font-size="16px" fill="#5c940d" text-anchor="start" style="white-space: pre;" direction="ltr" dominant-baseline="text-before-edge">git restore</text><text x="0" y="20" font-family="Virgil, Segoe UI Emoji" font-size="16px" fill="#5c940d" text-anchor="start" style="white-space: pre;" direction="ltr" dominant-baseline="text-before-edge">git checkout &lt;filepath&gt;</text></g><g transform="translate(1341.2542704787675 1016.6391605032647) rotate(0 132.08209228515625 60)"><text x="0" y="0" font-family="Virgil, Segoe UI Emoji" font-size="16px" fill="#c92a2a" text-anchor="start" style="white-space: pre;" direction="ltr" dominant-baseline="text-before-edge">N. git checkout &lt;branch&gt; -- &lt;file&gt;</text><text x="0" y="20" font-family="Virgil, Segoe UI Emoji" font-size="16px" fill="#c92a2a" text-anchor="start" style="white-space: pre;" direction="ltr" dominant-baseline="text-before-edge"></text><text x="0" y="40" font-family="Virgil, Segoe UI Emoji" font-size="16px" fill="#c92a2a" text-anchor="start" style="white-space: pre;" direction="ltr" dominant-baseline="text-before-edge">Update worktree and index</text><text x="0" y="60" font-family="Virgil, Segoe UI Emoji" font-size="16px" fill="#c92a2a" text-anchor="start" style="white-space: pre;" direction="ltr" dominant-baseline="text-before-edge">to the file version from another</text><text x="0" y="80" font-family="Virgil, Segoe UI Emoji" font-size="16px" fill="#c92a2a" text-anchor="start" style="white-space: pre;" direction="ltr" dominant-baseline="text-before-edge">branch.</text><text x="0" y="100" font-family="Virgil, Segoe UI Emoji" font-size="16px" fill="#c92a2a" text-anchor="start" style="white-space: pre;" direction="ltr" dominant-baseline="text-before-edge"></text></g><g transform="translate(1150.706938566149 778.4549956124943) rotate(0 45.261192321777344 20)"><text x="0" y="0" font-family="Virgil, Segoe UI Emoji" font-size="16px" fill="#5c940d" text-anchor="start" style="white-space: pre;" direction="ltr" dominant-baseline="text-before-edge">git add -p</text><text x="0" y="20" font-family="Virgil, Segoe UI Emoji" font-size="16px" fill="#5c940d" text-anchor="start" style="white-space: pre;" direction="ltr" dominant-baseline="text-before-edge">git add -A </text></g><g stroke-linecap="round"><g transform="translate(1152.5750496633318 833.5642729793785) rotate(0 -0.23351388714763743 29.88977755492033)"><path d="M0.4 0.16 C0.24 10.38, -0.53 51.08, -0.87 60.93 M-0.85 -0.81 C-1.22 9.15, -2.28 49.23, -2.03 59.41" stroke="#5c940d" stroke-width="1" fill="none"></path></g><g transform="translate(1152.5750496633318 833.5642729793785) rotate(0 -0.23351388714763743 29.88977755492033)"><path d="M-11.86 30.6 C-7.17 38.01, -6.82 50.08, -0.6 57.96 M-12.2 31.65 C-8.78 43, -4.45 53.67, -1.44 59.02" stroke="#5c940d" stroke-width="1" fill="none"></path></g><g transform="translate(1152.5750496633318 833.5642729793785) rotate(0 -0.23351388714763743 29.88977755492033)"><path d="M8.59 30.7 C6.94 38.15, 0.95 50.19, -0.6 57.96 M8.24 31.75 C3.57 43.11, -0.21 53.74, -1.44 59.02" stroke="#5c940d" stroke-width="1" fill="none"></path></g></g><mask></mask><g transform="translate(1280.627427660842 774.9653563022655) rotate(0 50.955223083496094 40)"><text x="0" y="0" font-family="Virgil, Segoe UI Emoji" font-size="16px" fill="#c92a2a" text-anchor="start" style="white-space: pre;" direction="ltr" dominant-baseline="text-before-edge">N. </text><text x="0" y="20" font-family="Virgil, Segoe UI Emoji" font-size="16px" fill="#c92a2a" text-anchor="start" style="white-space: pre;" direction="ltr" dominant-baseline="text-before-edge">-p hunks</text><text x="0" y="40" font-family="Virgil, Segoe UI Emoji" font-size="16px" fill="#c92a2a" text-anchor="start" style="white-space: pre;" direction="ltr" dominant-baseline="text-before-edge">-A untracked</text><text x="0" y="60" font-family="Virgil, Segoe UI Emoji" font-size="16px" fill="#c92a2a" text-anchor="start" style="white-space: pre;" direction="ltr" dominant-baseline="text-before-edge"></text></g><g transform="translate(462.9868044022078 714.0873570544088) rotate(0 107.67163848876953 20)"><text x="0" y="0" font-family="Virgil, Segoe UI Emoji" font-size="16px" fill="#862e9c" text-anchor="start" style="white-space: pre;" direction="ltr" dominant-baseline="text-before-edge">git rebase -i &lt;from commit&gt;</text><text x="0" y="20" font-family="Virgil, Segoe UI Emoji" font-size="16px" fill="#862e9c" text-anchor="start" style="white-space: pre;" direction="ltr" dominant-baseline="text-before-edge"></text></g><g transform="translate(796.2019153396086 1044.7430212557144) rotate(0 39.14179229736328 10)"><text x="0" y="0" font-family="Virgil, Segoe UI Emoji" font-size="16px" fill="#5c940d" text-anchor="start" style="white-space: pre;" direction="ltr" dominant-baseline="text-before-edge">git commit</text></g><g stroke-linecap="round"><g transform="translate(808.1059946884789 1035.0885975897233) rotate(0 -32.22491642639852 -23.818416489077208)"><path d="M-0.04 -0.74 C-10.88 -8.59, -53.04 -39.65, -63.91 -47.63 M-1.52 1.49 C-12.57 -6.11, -54.36 -37.87, -64.57 -46.09" stroke="#5c940d" stroke-width="1" fill="none"></path></g><g transform="translate(808.1059946884789 1035.0885975897233) rotate(0 -32.22491642639852 -23.818416489077208)"><path d="M-37.24 -35.98 C-47.18 -41.86, -60.03 -46.1, -63.91 -47.25 M-35.86 -37.77 C-45.24 -40.14, -53.14 -42.54, -64.81 -45.54" stroke="#5c940d" stroke-width="1" fill="none"></path></g><g transform="translate(808.1059946884789 1035.0885975897233) rotate(0 -32.22491642639852 -23.818416489077208)"><path d="M-49.83 -19.78 C-54.76 -32.02, -62.66 -42.62, -63.91 -47.25 M-48.45 -21.56 C-54.22 -28.82, -58.38 -36.04, -64.81 -45.54" stroke="#5c940d" stroke-width="1" fill="none"></path></g></g><mask></mask><g transform="translate(15.525862764702651 1185.5649642028359) rotate(0 177.776123046875 50)"><text x="0" y="0" font-family="Virgil, Segoe UI Emoji" font-size="16px" fill="#d9480f" text-anchor="start" style="white-space: pre;" direction="ltr" dominant-baseline="text-before-edge">git config --list --show-origin</text><text x="0" y="20" font-family="Virgil, Segoe UI Emoji" font-size="16px" fill="#d9480f" text-anchor="start" style="white-space: pre;" direction="ltr" dominant-baseline="text-before-edge"></text><text x="0" y="40" font-family="Virgil, Segoe UI Emoji" font-size="16px" fill="#d9480f" text-anchor="start" style="white-space: pre;" direction="ltr" dominant-baseline="text-before-edge">.gitconfig            repo</text><text x="0" y="60" font-family="Virgil, Segoe UI Emoji" font-size="16px" fill="#d9480f" text-anchor="start" style="white-space: pre;" direction="ltr" dominant-baseline="text-before-edge">$HOME/.gitconfig    global  (user specific)</text><text x="0" y="80" font-family="Virgil, Segoe UI Emoji" font-size="16px" fill="#d9480f" text-anchor="start" style="white-space: pre;" direction="ltr" dominant-baseline="text-before-edge">/etc/gitconfig       system (machine specific)</text></g><g transform="translate(462.9868044022078 538.9239135431806) rotate(0 105.97761535644531 70)"><text x="0" y="0" font-family="Virgil, Segoe UI Emoji" font-size="16px" fill="#862e9c" text-anchor="start" style="white-space: pre;" direction="ltr" dominant-baseline="text-before-edge">git reset --soft &lt;treeish&gt;</text><text x="0" y="20" font-family="Virgil, Segoe UI Emoji" font-size="16px" fill="#862e9c" text-anchor="start" style="white-space: pre;" direction="ltr" dominant-baseline="text-before-edge">  : branch</text><text x="0" y="40" font-family="Virgil, Segoe UI Emoji" font-size="16px" fill="#862e9c" text-anchor="start" style="white-space: pre;" direction="ltr" dominant-baseline="text-before-edge"></text><text x="0" y="60" font-family="Virgil, Segoe UI Emoji" font-size="16px" fill="#862e9c" text-anchor="start" style="white-space: pre;" direction="ltr" dominant-baseline="text-before-edge">git reset ---hard &lt;treeish&gt;</text><text x="0" y="80" font-family="Virgil, Segoe UI Emoji" font-size="16px" fill="#862e9c" text-anchor="start" style="white-space: pre;" direction="ltr" dominant-baseline="text-before-edge">  : branch</text><text x="0" y="100" font-family="Virgil, Segoe UI Emoji" font-size="16px" fill="#862e9c" text-anchor="start" style="white-space: pre;" direction="ltr" dominant-baseline="text-before-edge">  : index</text><text x="0" y="120" font-family="Virgil, Segoe UI Emoji" font-size="16px" fill="#862e9c" text-anchor="start" style="white-space: pre;" direction="ltr" dominant-baseline="text-before-edge">  : worktree</text></g><g transform="translate(714.0736590083989 538.9239135431806) rotate(0 105.64179229736328 30)"><text x="0" y="0" font-family="Virgil, Segoe UI Emoji" font-size="16px" fill="#862e9c" text-anchor="start" style="white-space: pre;" direction="ltr" dominant-baseline="text-before-edge">git reset --mixed &lt;treeish&gt;</text><text x="0" y="20" font-family="Virgil, Segoe UI Emoji" font-size="16px" fill="#862e9c" text-anchor="start" style="white-space: pre;" direction="ltr" dominant-baseline="text-before-edge">  : branch</text><text x="0" y="40" font-family="Virgil, Segoe UI Emoji" font-size="16px" fill="#862e9c" text-anchor="start" style="white-space: pre;" direction="ltr" dominant-baseline="text-before-edge">  : index</text></g><g transform="translate(728.5138306029003 893.8108558635147) rotate(0 119.51492309570312 10)"><text x="0" y="0" font-family="Virgil, Segoe UI Emoji" font-size="16px" fill="#5c940d" text-anchor="start" style="white-space: pre;" direction="ltr" dominant-baseline="text-before-edge">git reset &lt;commit&gt; &lt;file path&gt;</text></g><g stroke-linecap="round"><g transform="translate(821.5138026135655 930.0669951100069) rotate(0 24.90452042988818 26.38706924770304)"><path d="M-0.34 0.93 C7.81 9.58, 40.87 44.13, 49.18 52.62 M1.69 0.37 C10.2 9.16, 43.74 45.35, 51.55 54.08" stroke="#5c940d" stroke-width="1" fill="none"></path></g><g transform="translate(821.5138026135655 930.0669951100069) rotate(0 24.90452042988818 26.38706924770304)"><path d="M26.51 39.14 C33.42 44.28, 40.84 50.83, 53.51 52.64 M25.43 40.17 C31.93 43.61, 39.64 48.61, 52.48 54.25" stroke="#5c940d" stroke-width="1" fill="none"></path></g><g transform="translate(821.5138026135655 930.0669951100069) rotate(0 24.90452042988818 26.38706924770304)"><path d="M41.65 25.29 C43.73 34.88, 46.23 45.93, 53.51 52.64 M40.57 26.33 C43.11 33.31, 46.84 41.94, 52.48 54.25" stroke="#5c940d" stroke-width="1" fill="none"></path></g></g><mask></mask><g transform="translate(744.8598027032467 1201.5821591243346) rotate(0 202.15672302246094 20)"><text x="0" y="0" font-family="Virgil, Segoe UI Emoji" font-size="16px" fill="#d9480f" text-anchor="start" style="white-space: pre;" direction="ltr" dominant-baseline="text-before-edge">git notes add -m "&lt;note message&gt;" &lt;commit&gt;</text><text x="0" y="20" font-family="Virgil, Segoe UI Emoji" font-size="16px" fill="#d9480f" text-anchor="start" style="white-space: pre;" direction="ltr" dominant-baseline="text-before-edge">git notes list --ancestry-path &lt;ancestor&gt;..&lt;branch&gt;</text></g><g transform="translate(1210.573261516497 1199.9606309112885) rotate(0 109.51492309570312 90)"><text x="0" y="0" font-family="Virgil, Segoe UI Emoji" font-size="16px" fill="#c92a2a" text-anchor="start" style="white-space: pre;" direction="ltr" dominant-baseline="text-before-edge">N. git notes are preserved</text><text x="0" y="20" font-family="Virgil, Segoe UI Emoji" font-size="16px" fill="#c92a2a" text-anchor="start" style="white-space: pre;" direction="ltr" dominant-baseline="text-before-edge">in a rebase, the new commit</text><text x="0" y="40" font-family="Virgil, Segoe UI Emoji" font-size="16px" fill="#c92a2a" text-anchor="start" style="white-space: pre;" direction="ltr" dominant-baseline="text-before-edge">will have the note linked to</text><text x="0" y="60" font-family="Virgil, Segoe UI Emoji" font-size="16px" fill="#c92a2a" text-anchor="start" style="white-space: pre;" direction="ltr" dominant-baseline="text-before-edge">it.</text><text x="0" y="80" font-family="Virgil, Segoe UI Emoji" font-size="16px" fill="#c92a2a" text-anchor="start" style="white-space: pre;" direction="ltr" dominant-baseline="text-before-edge"></text><text x="0" y="100" font-family="Virgil, Segoe UI Emoji" font-size="16px" fill="#c92a2a" text-anchor="start" style="white-space: pre;" direction="ltr" dominant-baseline="text-before-edge">Squash does not preserve</text><text x="0" y="120" font-family="Virgil, Segoe UI Emoji" font-size="16px" fill="#c92a2a" text-anchor="start" style="white-space: pre;" direction="ltr" dominant-baseline="text-before-edge">notes</text><text x="0" y="140" font-family="Virgil, Segoe UI Emoji" font-size="16px" fill="#c92a2a" text-anchor="start" style="white-space: pre;" direction="ltr" dominant-baseline="text-before-edge"></text><text x="0" y="160" font-family="Virgil, Segoe UI Emoji" font-size="16px" fill="#c92a2a" text-anchor="start" style="white-space: pre;" direction="ltr" dominant-baseline="text-before-edge">Push/pull preserves notes</text></g><g transform="translate(1115.2128277196825 541.6719140446094) rotate(0 147.82089233398438 50)"><text x="0" y="0" font-family="Virgil, Segoe UI Emoji" font-size="16px" fill="#d9480f" text-anchor="start" style="white-space: pre;" direction="ltr" dominant-baseline="text-before-edge">HEAD~2 </text><text x="0" y="20" font-family="Virgil, Segoe UI Emoji" font-size="16px" fill="#d9480f" text-anchor="start" style="white-space: pre;" direction="ltr" dominant-baseline="text-before-edge"></text><text x="0" y="40" font-family="Virgil, Segoe UI Emoji" font-size="16px" fill="#d9480f" text-anchor="start" style="white-space: pre;" direction="ltr" dominant-baseline="text-before-edge">refers to the commit that is two </text><text x="0" y="60" font-family="Virgil, Segoe UI Emoji" font-size="16px" fill="#d9480f" text-anchor="start" style="white-space: pre;" direction="ltr" dominant-baseline="text-before-edge">commits behind HEAD ( It follow the </text><text x="0" y="80" font-family="Virgil, Segoe UI Emoji" font-size="16px" fill="#d9480f" text-anchor="start" style="white-space: pre;" direction="ltr" dominant-baseline="text-before-edge">first parent ).</text></g><g transform="translate(149.86641825061452 250.877999247856) rotate(0 120.67910766601562 60)"><text x="0" y="0" font-family="Virgil, Segoe UI Emoji" font-size="16px" fill="#d9480f" text-anchor="start" style="white-space: pre;" direction="ltr" dominant-baseline="text-before-edge">git remote add &lt;remote&gt; &lt;url&gt;</text><text x="0" y="20" font-family="Virgil, Segoe UI Emoji" font-size="16px" fill="#d9480f" text-anchor="start" style="white-space: pre;" direction="ltr" dominant-baseline="text-before-edge"></text><text x="0" y="40" font-family="Virgil, Segoe UI Emoji" font-size="16px" fill="#d9480f" text-anchor="start" style="white-space: pre;" direction="ltr" dominant-baseline="text-before-edge">git fetch --prune &lt;remote&gt;</text><text x="0" y="60" font-family="Virgil, Segoe UI Emoji" font-size="16px" fill="#d9480f" text-anchor="start" style="white-space: pre;" direction="ltr" dominant-baseline="text-before-edge">git update &lt;remote&gt;</text><text x="0" y="80" font-family="Virgil, Segoe UI Emoji" font-size="16px" fill="#d9480f" text-anchor="start" style="white-space: pre;" direction="ltr" dominant-baseline="text-before-edge"></text><text x="0" y="100" font-family="Virgil, Segoe UI Emoji" font-size="16px" fill="#d9480f" text-anchor="start" style="white-space: pre;" direction="ltr" dominant-baseline="text-before-edge">git push &lt;remote&gt; &lt;branch&gt;</text></g><g transform="translate(492.1485811240409 250.877999247856) rotate(0 143.3880615234375 30)"><text x="0" y="0" font-family="Virgil, Segoe UI Emoji" font-size="16px" fill="#c92a2a" text-anchor="start" style="white-space: pre;" direction="ltr" dominant-baseline="text-before-edge">N. fetch</text><text x="0" y="20" font-family="Virgil, Segoe UI Emoji" font-size="16px" fill="#c92a2a" text-anchor="start" style="white-space: pre;" direction="ltr" dominant-baseline="text-before-edge">  : new objects</text><text x="0" y="40" font-family="Virgil, Segoe UI Emoji" font-size="16px" fill="#c92a2a" text-anchor="start" style="white-space: pre;" direction="ltr" dominant-baseline="text-before-edge">  : update remote tracking branches</text></g><g transform="translate(490.3191308974483 328.12999874642696) rotate(0 89.73880767822266 30)"><text x="0" y="0" font-family="Virgil, Segoe UI Emoji" font-size="16px" fill="#c92a2a" text-anchor="start" style="white-space: pre;" direction="ltr" dominant-baseline="text-before-edge">N. pull </text><text x="0" y="20" font-family="Virgil, Segoe UI Emoji" font-size="16px" fill="#c92a2a" text-anchor="start" style="white-space: pre;" direction="ltr" dominant-baseline="text-before-edge">  : fetch</text><text x="0" y="40" font-family="Virgil, Segoe UI Emoji" font-size="16px" fill="#c92a2a" text-anchor="start" style="white-space: pre;" direction="ltr" dominant-baseline="text-before-edge">  : merge local branch </text></g><g transform="translate(1106.3393000080641 234.8346663323805) rotate(0 130.9626922607422 60)"><text x="0" y="0" font-family="Virgil, Segoe UI Emoji" font-size="16px" fill="#c92a2a" text-anchor="start" style="white-space: pre;" direction="ltr" dominant-baseline="text-before-edge">N.</text><text x="0" y="20" font-family="Virgil, Segoe UI Emoji" font-size="16px" fill="#c92a2a" text-anchor="start" style="white-space: pre;" direction="ltr" dominant-baseline="text-before-edge"></text><text x="0" y="40" font-family="Virgil, Segoe UI Emoji" font-size="16px" fill="#c92a2a" text-anchor="start" style="white-space: pre;" direction="ltr" dominant-baseline="text-before-edge">Initialize all submodules in the</text><text x="0" y="60" font-family="Virgil, Segoe UI Emoji" font-size="16px" fill="#c92a2a" text-anchor="start" style="white-space: pre;" direction="ltr" dominant-baseline="text-before-edge">repository and the update them</text><text x="0" y="80" font-family="Virgil, Segoe UI Emoji" font-size="16px" fill="#c92a2a" text-anchor="start" style="white-space: pre;" direction="ltr" dominant-baseline="text-before-edge"> to point to they latest commit </text><text x="0" y="100" font-family="Virgil, Segoe UI Emoji" font-size="16px" fill="#c92a2a" text-anchor="start" style="white-space: pre;" direction="ltr" dominant-baseline="text-before-edge">in their respective branch.</text></g><g transform="translate(1106.3393000080641 203.5438054545732) rotate(0 142.723876953125 10)"><text x="0" y="0" font-family="Virgil, Segoe UI Emoji" font-size="16px" fill="#d9480f" text-anchor="start" style="white-space: pre;" direction="ltr" dominant-baseline="text-before-edge">git submodule update --init --remote</text></g><g transform="translate(1442.1322697266214 177.39025009401826) rotate(0 193.2462615966797 180)"><text x="0" y="0" font-family="Virgil, Segoe UI Emoji" font-size="16px" fill="#c92a2a" text-anchor="start" style="white-space: pre;" direction="ltr" dominant-baseline="text-before-edge">N.</text><text x="0" y="20" font-family="Virgil, Segoe UI Emoji" font-size="16px" fill="#c92a2a" text-anchor="start" style="white-space: pre;" direction="ltr" dominant-baseline="text-before-edge"></text><text x="0" y="40" font-family="Virgil, Segoe UI Emoji" font-size="16px" fill="#c92a2a" text-anchor="start" style="white-space: pre;" direction="ltr" dominant-baseline="text-before-edge">initializing a submodule is setting</text><text x="0" y="60" font-family="Virgil, Segoe UI Emoji" font-size="16px" fill="#c92a2a" text-anchor="start" style="white-space: pre;" direction="ltr" dominant-baseline="text-before-edge">up a submodule in a repository</text><text x="0" y="80" font-family="Virgil, Segoe UI Emoji" font-size="16px" fill="#c92a2a" text-anchor="start" style="white-space: pre;" direction="ltr" dominant-baseline="text-before-edge"> so that it is ready to be usd.</text><text x="0" y="100" font-family="Virgil, Segoe UI Emoji" font-size="16px" fill="#c92a2a" text-anchor="start" style="white-space: pre;" direction="ltr" dominant-baseline="text-before-edge"></text><text x="0" y="120" font-family="Virgil, Segoe UI Emoji" font-size="16px" fill="#c92a2a" text-anchor="start" style="white-space: pre;" direction="ltr" dominant-baseline="text-before-edge">This involves:</text><text x="0" y="140" font-family="Virgil, Segoe UI Emoji" font-size="16px" fill="#c92a2a" text-anchor="start" style="white-space: pre;" direction="ltr" dominant-baseline="text-before-edge"></text><text x="0" y="160" font-family="Virgil, Segoe UI Emoji" font-size="16px" fill="#c92a2a" text-anchor="start" style="white-space: pre;" direction="ltr" dominant-baseline="text-before-edge">-  Creating a clone of the submodule repository </text><text x="0" y="180" font-family="Virgil, Segoe UI Emoji" font-size="16px" fill="#c92a2a" text-anchor="start" style="white-space: pre;" direction="ltr" dominant-baseline="text-before-edge">   in the local repository.</text><text x="0" y="200" font-family="Virgil, Segoe UI Emoji" font-size="16px" fill="#c92a2a" text-anchor="start" style="white-space: pre;" direction="ltr" dominant-baseline="text-before-edge"></text><text x="0" y="220" font-family="Virgil, Segoe UI Emoji" font-size="16px" fill="#c92a2a" text-anchor="start" style="white-space: pre;" direction="ltr" dominant-baseline="text-before-edge">- Checking out the submodule repository to the </text><text x="0" y="240" font-family="Virgil, Segoe UI Emoji" font-size="16px" fill="#c92a2a" text-anchor="start" style="white-space: pre;" direction="ltr" dominant-baseline="text-before-edge">   correct commit or branch.</text><text x="0" y="260" font-family="Virgil, Segoe UI Emoji" font-size="16px" fill="#c92a2a" text-anchor="start" style="white-space: pre;" direction="ltr" dominant-baseline="text-before-edge"></text><text x="0" y="280" font-family="Virgil, Segoe UI Emoji" font-size="16px" fill="#c92a2a" text-anchor="start" style="white-space: pre;" direction="ltr" dominant-baseline="text-before-edge">- Updating the .gitmodules file in the parent </text><text x="0" y="300" font-family="Virgil, Segoe UI Emoji" font-size="16px" fill="#c92a2a" text-anchor="start" style="white-space: pre;" direction="ltr" dominant-baseline="text-before-edge">  repository with information about the </text><text x="0" y="320" font-family="Virgil, Segoe UI Emoji" font-size="16px" fill="#c92a2a" text-anchor="start" style="white-space: pre;" direction="ltr" dominant-baseline="text-before-edge">   submodule, such as its URL and the commit </text><text x="0" y="340" font-family="Virgil, Segoe UI Emoji" font-size="16px" fill="#c92a2a" text-anchor="start" style="white-space: pre;" direction="ltr" dominant-baseline="text-before-edge">   it is currently checked out to.</text></g><g transform="translate(1437.5652289453774 10) rotate(0 178.3358154296875 50)"><text x="0" y="0" font-family="Virgil, Segoe UI Emoji" font-size="16px" fill="#c92a2a" text-anchor="start" style="white-space: pre;" direction="ltr" dominant-baseline="text-before-edge">N.</text><text x="0" y="20" font-family="Virgil, Segoe UI Emoji" font-size="16px" fill="#c92a2a" text-anchor="start" style="white-space: pre;" direction="ltr" dominant-baseline="text-before-edge"></text><text x="0" y="40" font-family="Virgil, Segoe UI Emoji" font-size="16px" fill="#c92a2a" text-anchor="start" style="white-space: pre;" direction="ltr" dominant-baseline="text-before-edge">Adding a submoduel to a repository does not</text><text x="0" y="60" font-family="Virgil, Segoe UI Emoji" font-size="16px" fill="#c92a2a" text-anchor="start" style="white-space: pre;" direction="ltr" dominant-baseline="text-before-edge">automatically initialize it.</text><text x="0" y="80" font-family="Virgil, Segoe UI Emoji" font-size="16px" fill="#c92a2a" text-anchor="start" style="white-space: pre;" direction="ltr" dominant-baseline="text-before-edge"></text></g><g transform="translate(1104.9382166851774 18.133779059208337) rotate(0 105.9328384399414 10)"><text x="0" y="0" font-family="Virgil, Segoe UI Emoji" font-size="16px" fill="#d9480f" text-anchor="start" style="white-space: pre;" direction="ltr" dominant-baseline="text-before-edge">git submodule update --init</text></g><g transform="translate(1101.7378166163517 44.25930626939612) rotate(0 107.67910766601562 60)"><text x="0" y="0" font-family="Virgil, Segoe UI Emoji" font-size="16px" fill="#c92a2a" text-anchor="start" style="white-space: pre;" direction="ltr" dominant-baseline="text-before-edge">N.</text><text x="0" y="20" font-family="Virgil, Segoe UI Emoji" font-size="16px" fill="#c92a2a" text-anchor="start" style="white-space: pre;" direction="ltr" dominant-baseline="text-before-edge"></text><text x="0" y="40" font-family="Virgil, Segoe UI Emoji" font-size="16px" fill="#c92a2a" text-anchor="start" style="white-space: pre;" direction="ltr" dominant-baseline="text-before-edge">Initialize all sub modules in</text><text x="0" y="60" font-family="Virgil, Segoe UI Emoji" font-size="16px" fill="#c92a2a" text-anchor="start" style="white-space: pre;" direction="ltr" dominant-baseline="text-before-edge">the repository.  Does not</text><text x="0" y="80" font-family="Virgil, Segoe UI Emoji" font-size="16px" fill="#c92a2a" text-anchor="start" style="white-space: pre;" direction="ltr" dominant-baseline="text-before-edge">change the commit they</text><text x="0" y="100" font-family="Virgil, Segoe UI Emoji" font-size="16px" fill="#c92a2a" text-anchor="start" style="white-space: pre;" direction="ltr" dominant-baseline="text-before-edge">point to</text></g></svg>